# xmcd
#
# Track frame offsets: 
#        150
#        22680
#        38384
#        51672
#        77403
#        95523
#        109627
#        124637
#        136898
#        149461
#        163172
#        181776
#        205453
#        221157
#        234324
#        255344
#        276122
#        286873
#        300886
#        312724
#        333985
#
# Disc length: 4770 seconds
#
# Revision: 0
# Processed by: cddbd v1.5.2PL0 Copyright (c) Steve Scherf et al.
# Submitted via: ExactAudioCopy v0.99pb4
#
DISCID=1f12a015
DTITLE=Various Artist - Фабрика колбасы
DYEAR=2006
DGENRE=House
TTITLE0=Kolbaser Project - Don't stop
TTITLE1=Dj Armani - Lonely
TTITLE2=Devil Drumz - Und Ap Gets
TTITLE3=Dj Vadim - Crazy frog (club mix)
TTITLE4=Dj Vitamin - First Day
TTITLE5=Dj Raf - Колбасу не кушают!
TTITLE6=Dj Bar@bass (Dead Factory) - Little Zombie (part 2)
TTITLE7=Dj Timo Tomee - Blue bamboo
TTITLE8=N-Ice Project - Do U Realise
TTITLE9=Pump Estate - One
TTITLE10=XS Project - ЯД
TTITLE11=Dj Armani - Cruel Summer
TTITLE12=Devil Drumz - Inferno Bass (Dj Dave Bamboo Electro Mix)
TTITLE13=Iron Project - Мутанты
TTITLE14=Dj Bar@bass (Dead Factory) - Вспоминай меня (Rmx)
TTITLE15=Dj Vitamin - Freek U
TTITLE16=Kolbaser Project - Rain Tears
TTITLE17=Dj Bar@bass (Dead Factory) - Отдай плюшку
TTITLE18=Dj Vadim - Stand by for action (Rmx)
TTITLE19=XS Project - Вода (Dj Timo Tomee Rmx)
TTITLE20=Strike Project - Groove
EXTD=
EXTT0=
EXTT1=
EXTT2=
EXTT3=
EXTT4=
EXTT5=
EXTT6=
EXTT7=
EXTT8=
EXTT9=
EXTT10=
EXTT11=
EXTT12=
EXTT13=
EXTT14=
EXTT15=
EXTT16=
EXTT17=
EXTT18=
EXTT19=
EXTT20=
PLAYORDER=
